<svg width="38" height="10" viewBox="0 0 38 10" fill="none" xmlns="http://www.w3.org/2000/svg">
<path d="M5.09766 6.75C5.28516 6.75 5.46094 6.72852 5.625 6.68555C5.78906 6.63867 5.94141 6.58008 6.08203 6.50977C6.22266 6.43945 6.34961 6.35938 6.46289 6.26953C6.58008 6.17969 6.68164 6.08984 6.76758 6H7.74609V9H0.597656V6.45703L1.34766 6.31055V2.68945L0.597656 2.54297V0H5.84766V2.54297L5.09766 2.68945V6.75ZM13.1543 9.10547C12.4668 9.10547 11.8223 9.0332 11.2207 8.88867C10.623 8.74023 10.1016 8.48828 9.65625 8.13281C9.21484 7.77344 8.86523 7.31641 8.60742 6.76172C8.35352 6.20703 8.22656 5.54102 8.22656 4.76367C8.22656 4.00195 8.35352 3.35352 8.60742 2.81836C8.86523 2.2793 9.2168 1.8418 9.66211 1.50586C10.1074 1.16602 10.6289 0.917969 11.2266 0.761719C11.8242 0.605469 12.4668 0.527344 13.1543 0.527344C13.8379 0.527344 14.4785 0.605469 15.0762 0.761719C15.6777 0.917969 16.2012 1.16602 16.6465 1.50586C17.0957 1.8418 17.4492 2.2793 17.707 2.81836C17.9648 3.35352 18.0938 4.00195 18.0938 4.76367C18.0938 5.2793 18.0352 5.74805 17.918 6.16992C17.8008 6.58789 17.6348 6.96094 17.4199 7.28906C17.209 7.61328 16.9531 7.89453 16.6523 8.13281C16.3555 8.36719 16.0234 8.5625 15.6562 8.71875C15.2891 8.87109 14.8945 8.97266 14.4727 9.02344C14.0508 9.07812 13.6113 9.10547 13.1543 9.10547ZM13.1543 3.02344C12.9238 3.02344 12.7285 3.05273 12.5684 3.11133C12.4121 3.16992 12.2812 3.24609 12.1758 3.33984C12.0742 3.43359 11.9941 3.54102 11.9355 3.66211C11.877 3.7832 11.834 3.9082 11.8066 4.03711C11.7832 4.16211 11.7676 4.28711 11.7598 4.41211C11.7559 4.5332 11.7539 4.64062 11.7539 4.73438C11.7539 4.82422 11.7559 4.93164 11.7598 5.05664C11.7637 5.17773 11.7773 5.30664 11.8008 5.44336C11.8242 5.57617 11.8633 5.70898 11.918 5.8418C11.9727 5.97461 12.0508 6.09375 12.1523 6.19922C12.2578 6.30469 12.3906 6.39062 12.5508 6.45703C12.7148 6.51953 12.916 6.55078 13.1543 6.55078C13.3887 6.55078 13.5859 6.51953 13.7461 6.45703C13.9102 6.39453 14.043 6.3125 14.1445 6.21094C14.25 6.10547 14.332 5.98828 14.3906 5.85938C14.4492 5.73047 14.4902 5.60156 14.5137 5.47266C14.541 5.33984 14.5566 5.21094 14.5605 5.08594C14.5684 4.96094 14.5723 4.85352 14.5723 4.76367C14.5723 4.66992 14.5684 4.5625 14.5605 4.44141C14.5566 4.31641 14.541 4.18945 14.5137 4.06055C14.4902 3.93164 14.4492 3.80664 14.3906 3.68555C14.332 3.56055 14.25 3.44922 14.1445 3.35156C14.043 3.25391 13.9102 3.17578 13.7461 3.11719C13.5859 3.05469 13.3887 3.02344 13.1543 3.02344ZM18.8027 4.76367C18.8027 4.0293 18.9141 3.39648 19.1367 2.86523C19.3594 2.33008 19.6758 1.89062 20.0859 1.54688C20.4961 1.19922 20.9902 0.943359 21.5684 0.779297C22.1504 0.611328 22.7988 0.527344 23.5137 0.527344C23.9473 0.527344 24.3379 0.548828 24.6855 0.591797C25.0371 0.634766 25.3516 0.689453 25.6289 0.755859C25.9102 0.822266 26.1562 0.896484 26.3672 0.978516C26.582 1.05664 26.7715 1.13281 26.9355 1.20703V3.75586H25.2773C25.1875 3.62695 25.0977 3.51562 25.0078 3.42188C24.9219 3.32422 24.8281 3.24609 24.7266 3.1875C24.625 3.125 24.5117 3.07812 24.3867 3.04688C24.2617 3.01562 24.1152 3 23.9473 3C23.7441 3 23.5449 3.03125 23.3496 3.09375C23.1582 3.15234 22.9863 3.25195 22.834 3.39258C22.6855 3.5293 22.5645 3.71094 22.4707 3.9375C22.3809 4.16016 22.3359 4.43555 22.3359 4.76367C22.3359 5.14648 22.373 5.46094 22.4473 5.70703C22.5215 5.94922 22.6289 6.14258 22.7695 6.28711C22.9102 6.42773 23.082 6.52539 23.2852 6.58008C23.4922 6.63477 23.7285 6.66211 23.9941 6.66211C24.1348 6.66211 24.2793 6.65234 24.4277 6.63281C24.5801 6.61328 24.7441 6.57617 24.9199 6.52148V5.85352H23.7422V4.41211H27.1699V8.30273C26.8809 8.42383 26.5742 8.53711 26.25 8.64258C25.9258 8.74805 25.5996 8.83984 25.2715 8.91797C24.9473 8.99609 24.6289 9.04688 24.3164 9.07031C24.0039 9.09375 23.7148 9.10547 23.4492 9.10547C22.7969 9.10547 22.1875 9.02734 21.6211 8.87109C21.0547 8.71484 20.5625 8.45508 20.1445 8.0918C19.7266 7.72852 19.3984 7.27148 19.1602 6.7207C18.9219 6.16602 18.8027 5.51367 18.8027 4.76367ZM32.748 9.10547C32.0605 9.10547 31.416 9.0332 30.8145 8.88867C30.2168 8.74023 29.6953 8.48828 29.25 8.13281C28.8086 7.77344 28.459 7.31641 28.2012 6.76172C27.9473 6.20703 27.8203 5.54102 27.8203 4.76367C27.8203 4.00195 27.9473 3.35352 28.2012 2.81836C28.459 2.2793 28.8105 1.8418 29.2559 1.50586C29.7012 1.16602 30.2227 0.917969 30.8203 0.761719C31.418 0.605469 32.0605 0.527344 32.748 0.527344C33.4316 0.527344 34.0723 0.605469 34.6699 0.761719C35.2715 0.917969 35.7949 1.16602 36.2402 1.50586C36.6895 1.8418 37.043 2.2793 37.3008 2.81836C37.5586 3.35352 37.6875 4.00195 37.6875 4.76367C37.6875 5.2793 37.6289 5.74805 37.5117 6.16992C37.3945 6.58789 37.2285 6.96094 37.0137 7.28906C36.8027 7.61328 36.5469 7.89453 36.2461 8.13281C35.9492 8.36719 35.6172 8.5625 35.25 8.71875C34.8828 8.87109 34.4883 8.97266 34.0664 9.02344C33.6445 9.07812 33.2051 9.10547 32.748 9.10547ZM32.748 3.02344C32.5176 3.02344 32.3223 3.05273 32.1621 3.11133C32.0059 3.16992 31.875 3.24609 31.7695 3.33984C31.668 3.43359 31.5879 3.54102 31.5293 3.66211C31.4707 3.7832 31.4277 3.9082 31.4004 4.03711C31.377 4.16211 31.3613 4.28711 31.3535 4.41211C31.3496 4.5332 31.3477 4.64062 31.3477 4.73438C31.3477 4.82422 31.3496 4.93164 31.3535 5.05664C31.3574 5.17773 31.3711 5.30664 31.3945 5.44336C31.418 5.57617 31.457 5.70898 31.5117 5.8418C31.5664 5.97461 31.6445 6.09375 31.7461 6.19922C31.8516 6.30469 31.9844 6.39062 32.1445 6.45703C32.3086 6.51953 32.5098 6.55078 32.748 6.55078C32.9824 6.55078 33.1797 6.51953 33.3398 6.45703C33.5039 6.39453 33.6367 6.3125 33.7383 6.21094C33.8438 6.10547 33.9258 5.98828 33.9844 5.85938C34.043 5.73047 34.084 5.60156 34.1074 5.47266C34.1348 5.33984 34.1504 5.21094 34.1543 5.08594C34.1621 4.96094 34.166 4.85352 34.166 4.76367C34.166 4.66992 34.1621 4.5625 34.1543 4.44141C34.1504 4.31641 34.1348 4.18945 34.1074 4.06055C34.084 3.93164 34.043 3.80664 33.9844 3.68555C33.9258 3.56055 33.8438 3.44922 33.7383 3.35156C33.6367 3.25391 33.5039 3.17578 33.3398 3.11719C33.1797 3.05469 32.9824 3.02344 32.748 3.02344Z" fill="#AAAEBA"/>
</svg>
