<svg width="46" height="46" viewBox="0 0 46 46" fill="none" xmlns="http://www.w3.org/2000/svg">
<path d="M38.3333 5.75H7.66665C5.54955 5.75 3.83331 7.46624 3.83331 9.58333V28.75C3.83331 30.8671 5.54955 32.5833 7.66665 32.5833H38.3333C40.4504 32.5833 42.1666 30.8671 42.1666 28.75V9.58333C42.1666 7.46624 40.4504 5.75 38.3333 5.75Z" stroke="#AAAEBA" stroke-width="2" stroke-linecap="round" stroke-linejoin="round"/>
<path d="M15.3333 40.25H30.6666" stroke="#AAAEBA" stroke-width="2" stroke-linecap="round" stroke-linejoin="round"/>
<path d="M23 32.5835V40.2502" stroke="#AAAEBA" stroke-width="2" stroke-linecap="round" stroke-linejoin="round"/>
<g clip-path="url(#clip0_141_5)">
<path d="M15 20.5C15.8284 20.5 16.5 19.8284 16.5 19C16.5 18.1716 15.8284 17.5 15 17.5C14.1716 17.5 13.5 18.1716 13.5 19C13.5 19.8284 14.1716 20.5 15 20.5Z" stroke="#AAAEBA" stroke-linecap="round" stroke-linejoin="round"/>
<path d="M18.7 20.5C18.6334 20.6508 18.6136 20.8181 18.643 20.9803C18.6724 21.1425 18.7497 21.2922 18.865 21.41L18.895 21.44C18.988 21.5329 19.0617 21.6432 19.1121 21.7646C19.1624 21.886 19.1883 22.0161 19.1883 22.1475C19.1883 22.2789 19.1624 22.409 19.1121 22.5304C19.0617 22.6518 18.988 22.7621 18.895 22.855C18.8021 22.948 18.6918 23.0217 18.5704 23.0721C18.449 23.1224 18.3189 23.1483 18.1875 23.1483C18.0561 23.1483 17.926 23.1224 17.8046 23.0721C17.6832 23.0217 17.5729 22.948 17.48 22.855L17.45 22.825C17.3322 22.7097 17.1825 22.6324 17.0203 22.603C16.8581 22.5736 16.6908 22.5934 16.54 22.66C16.3921 22.7234 16.266 22.8286 16.1772 22.9628C16.0883 23.0969 16.0406 23.2541 16.04 23.415V23.5C16.04 23.7652 15.9346 24.0196 15.7471 24.2071C15.5596 24.3946 15.3052 24.5 15.04 24.5C14.7748 24.5 14.5204 24.3946 14.3329 24.2071C14.1454 24.0196 14.04 23.7652 14.04 23.5V23.455C14.0361 23.2895 13.9826 23.129 13.8863 22.9944C13.79 22.8597 13.6554 22.7571 13.5 22.7C13.3492 22.6334 13.1819 22.6136 13.0197 22.643C12.8575 22.6724 12.7078 22.7497 12.59 22.865L12.56 22.895C12.4671 22.988 12.3568 23.0617 12.2354 23.1121C12.114 23.1624 11.9839 23.1883 11.8525 23.1883C11.7211 23.1883 11.591 23.1624 11.4696 23.1121C11.3482 23.0617 11.2379 22.988 11.145 22.895C11.052 22.8021 10.9783 22.6918 10.9279 22.5704C10.8776 22.449 10.8517 22.3189 10.8517 22.1875C10.8517 22.0561 10.8776 21.926 10.9279 21.8046C10.9783 21.6832 11.052 21.5729 11.145 21.48L11.175 21.45C11.2903 21.3322 11.3676 21.1825 11.397 21.0203C11.4264 20.8581 11.4066 20.6908 11.34 20.54C11.2766 20.3921 11.1714 20.266 11.0372 20.1772C10.9031 20.0883 10.7459 20.0406 10.585 20.04H10.5C10.2348 20.04 9.98043 19.9346 9.79289 19.7471C9.60536 19.5596 9.5 19.3052 9.5 19.04C9.5 18.7748 9.60536 18.5204 9.79289 18.3329C9.98043 18.1454 10.2348 18.04 10.5 18.04H10.545C10.7105 18.0361 10.871 17.9826 11.0056 17.8863C11.1403 17.79 11.2429 17.6554 11.3 17.5C11.3666 17.3492 11.3864 17.1819 11.357 17.0197C11.3276 16.8575 11.2503 16.7078 11.135 16.59L11.105 16.56C11.012 16.4671 10.9383 16.3568 10.8879 16.2354C10.8376 16.114 10.8117 15.9839 10.8117 15.8525C10.8117 15.7211 10.8376 15.591 10.8879 15.4696C10.9383 15.3482 11.012 15.2379 11.105 15.145C11.1979 15.052 11.3082 14.9783 11.4296 14.9279C11.551 14.8776 11.6811 14.8517 11.8125 14.8517C11.9439 14.8517 12.074 14.8776 12.1954 14.9279C12.3168 14.9783 12.4271 15.052 12.52 15.145L12.55 15.175C12.6678 15.2903 12.8175 15.3676 12.9797 15.397C13.1419 15.4264 13.3092 15.4066 13.46 15.34H13.5C13.6479 15.2766 13.774 15.1714 13.8628 15.0372C13.9517 14.9031 13.9994 14.7459 14 14.585V14.5C14 14.2348 14.1054 13.9804 14.2929 13.7929C14.4804 13.6054 14.7348 13.5 15 13.5C15.2652 13.5 15.5196 13.6054 15.7071 13.7929C15.8946 13.9804 16 14.2348 16 14.5V14.545C16.0006 14.7059 16.0483 14.8631 16.1372 14.9972C16.226 15.1314 16.3521 15.2366 16.5 15.3C16.6508 15.3666 16.8181 15.3864 16.9803 15.357C17.1425 15.3276 17.2922 15.2503 17.41 15.135L17.44 15.105C17.5329 15.012 17.6432 14.9383 17.7646 14.8879C17.886 14.8376 18.0161 14.8117 18.1475 14.8117C18.2789 14.8117 18.409 14.8376 18.5304 14.8879C18.6518 14.9383 18.7621 15.012 18.855 15.105C18.948 15.1979 19.0217 15.3082 19.0721 15.4296C19.1224 15.551 19.1483 15.6811 19.1483 15.8125C19.1483 15.9439 19.1224 16.074 19.0721 16.1954C19.0217 16.3168 18.948 16.4271 18.855 16.52L18.825 16.55C18.7097 16.6678 18.6324 16.8175 18.603 16.9797C18.5736 17.1419 18.5934 17.3092 18.66 17.46V17.5C18.7234 17.6479 18.8286 17.774 18.9628 17.8628C19.0969 17.9517 19.2541 17.9994 19.415 18H19.5C19.7652 18 20.0196 18.1054 20.2071 18.2929C20.3946 18.4804 20.5 18.7348 20.5 19C20.5 19.2652 20.3946 19.5196 20.2071 19.7071C20.0196 19.8946 19.7652 20 19.5 20H19.455C19.2941 20.0006 19.1369 20.0483 19.0028 20.1372C18.8686 20.226 18.7634 20.3521 18.7 20.5Z" stroke="#AAAEBA" stroke-linecap="round" stroke-linejoin="round"/>
</g>
<g clip-path="url(#clip1_141_5)">
<path d="M34.9167 18.5835H29.0833C28.6231 18.5835 28.25 18.9566 28.25 19.4168V22.3335C28.25 22.7937 28.6231 23.1668 29.0833 23.1668H34.9167C35.3769 23.1668 35.75 22.7937 35.75 22.3335V19.4168C35.75 18.9566 35.3769 18.5835 34.9167 18.5835Z" stroke="#AAAEBA" stroke-linecap="round" stroke-linejoin="round"/>
<path d="M29.9167 18.5835V16.9168C29.9167 16.3643 30.1362 15.8344 30.5269 15.4437C30.9176 15.053 31.4475 14.8335 32 14.8335C32.5526 14.8335 33.0825 15.053 33.4732 15.4437C33.8639 15.8344 34.0834 16.3643 34.0834 16.9168V18.5835" stroke="#AAAEBA" stroke-linecap="round" stroke-linejoin="round"/>
</g>
<defs>
<clipPath id="clip0_141_5">
<rect width="12" height="12" fill="white" transform="translate(9 13)"/>
</clipPath>
<clipPath id="clip1_141_5">
<rect width="10" height="10" fill="white" transform="translate(27 14)"/>
</clipPath>
</defs>
</svg>
